<svg id="b9ea518d-3ba2-480c-8884-27bb0da83f8a" data-name="Capa 1" xmlns="http://www.w3.org/2000/svg" xmlns:xlink="http://www.w3.org/1999/xlink" viewBox="0 0 492.18 163"><defs><style>.a0e8fb98-46e4-48b4-8935-648a310d5f9c{fill:url(#f65c464a-584d-411b-9540-17fd75629562);}</style><linearGradient id="f65c464a-584d-411b-9540-17fd75629562" x1="-56.93" y1="474.87" x2="-55.93" y2="474.87" gradientTransform="matrix(81.57, 38.04, 38.04, -81.57, -13225.54, 40919.47)" gradientUnits="userSpaceOnUse"><stop offset="0" stop-color="#006678"/><stop offset="1" stop-color="#4fa8ff"/></linearGradient></defs><title>logo2</title><g id="bdd9d40f-4fb3-490d-9e9b-1158b7f66f25" data-name="be92b1e7-5ab1-44fd-af3f-22541a1597a0"><path d="M99.54,142.73h0a17.73,17.73,0,0,1-6.7-1.22h0A13.8,13.8,0,0,1,87.67,138h0a15.84,15.84,0,0,1-3.33-5.7h0a23.27,23.27,0,0,1-1.18-7.74h0a21.16,21.16,0,0,1,1.32-7.75h0a16.61,16.61,0,0,1,3.59-5.7h0a14.77,14.77,0,0,1,5.27-3.51h0a17.1,17.1,0,0,1,6.45-1.22h0a21.46,21.46,0,0,1,3.87.32h0a24.12,24.12,0,0,1,3,.68h0a11.77,11.77,0,0,1,2.08.83h0a12.32,12.32,0,0,1,1.11.57h0l-1.4,4h0a9.76,9.76,0,0,0-1.33-.65h0a17,17,0,0,0-1.93-.68h0a15.57,15.57,0,0,0-2.33-.57h0a13.37,13.37,0,0,0-2.59-.25h0a12.43,12.43,0,0,0-5,1h0a9.86,9.86,0,0,0-3.76,2.77h0a12.88,12.88,0,0,0-2.41,4.37h0a19.05,19.05,0,0,0-.82,5.81h0a19.94,19.94,0,0,0,.75,5.66h0a12.17,12.17,0,0,0,2.19,4.41h0a9.66,9.66,0,0,0,3.62,2.84h0a12.26,12.26,0,0,0,5.09,1h0a18.38,18.38,0,0,0,5.59-.72h0a21.45,21.45,0,0,0,3.3-1.25h0l1.26,4h0a7.61,7.61,0,0,1-1.26.65h0a19.15,19.15,0,0,1-2.26.72h0a27.77,27.77,0,0,1-3.15.6h0A28.3,28.3,0,0,1,99.54,142.73Zm38.9-13.81h0a16.1,16.1,0,0,1-.93,5.63h0a12.7,12.7,0,0,1-2.51,4.3h0a11.64,11.64,0,0,1-3.91,2.8h0a12.23,12.23,0,0,1-4.91,1h0a12.23,12.23,0,0,1-4.91-1h0a11.64,11.64,0,0,1-3.91-2.8h0a12.7,12.7,0,0,1-2.51-4.3h0a16.1,16.1,0,0,1-.93-5.63h0a16,16,0,0,1,.93-5.59h0a12.7,12.7,0,0,1,2.51-4.34h0a11.11,11.11,0,0,1,3.91-2.8h0a12.39,12.39,0,0,1,4.91-1h0a12.39,12.39,0,0,1,4.91,1h0A11.11,11.11,0,0,1,135,119h0a12.7,12.7,0,0,1,2.51,4.34h0A16,16,0,0,1,138.44,128.92Zm-4.87,0h0a11.09,11.09,0,0,0-2-7h0a6.4,6.4,0,0,0-5.38-2.62h0a6.47,6.47,0,0,0-5.41,2.62h0a11.21,11.21,0,0,0-2,7h0a11.21,11.21,0,0,0,2,7h0a6.48,6.48,0,0,0,5.41,2.58h0a6.42,6.42,0,0,0,5.38-2.58h0A11.09,11.09,0,0,0,133.57,128.92ZM145,142V116.62h0c1.08-.26,2.5-.55,4.27-.86h0a35.88,35.88,0,0,1,6.13-.46h0a13,13,0,0,1,5.16.89h0a8.16,8.16,0,0,1,3.3,2.44h0a9.87,9.87,0,0,1,1.72,3.8h0a21.83,21.83,0,0,1,.51,4.88h0V142h-4.67V128.31h0a22.3,22.3,0,0,0-.32-4.12h0a7.08,7.08,0,0,0-1.07-2.76h0a4.54,4.54,0,0,0-2-1.54h0a9.07,9.07,0,0,0-3.12-.47h0c-.5,0-1,0-1.58.07h0c-.52,0-1,.06-1.5.11h0c-.51.05-.95.11-1.33.18h0l-.83.14h0v22Zm40.16.61h0a14.33,14.33,0,0,1-5.56-1h0a11.32,11.32,0,0,1-4-2.83h0a11.92,11.92,0,0,1-2.44-4.27h0a18.18,18.18,0,0,1-.79-5.52h0a17,17,0,0,1,.86-5.52h0a13.09,13.09,0,0,1,2.51-4.34h0a11.36,11.36,0,0,1,3.94-2.87h0a13,13,0,0,1,5.2-1h0a22.07,22.07,0,0,1,3.52.28h0a14.21,14.21,0,0,1,3.33,1h0l-1,3.94h0a10.6,10.6,0,0,0-2.44-.78h0a12.49,12.49,0,0,0-2.94-.33h0a7.37,7.37,0,0,0-6,2.48h0q-2.08,2.47-2.08,7.17h0a15.1,15.1,0,0,0,.46,3.87h0a7.63,7.63,0,0,0,1.51,3h0a6.87,6.87,0,0,0,2.65,1.94h0a9.93,9.93,0,0,0,3.91.68h0a14.57,14.57,0,0,0,3.37-.36h0a12.54,12.54,0,0,0,2.33-.75h0l.68,3.91h0a5.58,5.58,0,0,1-1.18.46h0a13,13,0,0,1-1.69.43h0c-.64.12-1.32.22-2,.29h0A16.77,16.77,0,0,1,185.16,142.58Zm16.67-.61h-4.66V103.82l4.66-.82v13.37h0a17.41,17.41,0,0,1,2.76-.79h0a15.88,15.88,0,0,1,2.94-.28h0a13.33,13.33,0,0,1,5.2.89h0a8,8,0,0,1,3.26,2.44h0a9.5,9.5,0,0,1,1.76,3.8h0a22.45,22.45,0,0,1,.5,4.88h0V142h-4.69V128.31h0a22.22,22.22,0,0,0-.33-4.12h0a7.08,7.08,0,0,0-1.07-2.76h0a4.48,4.48,0,0,0-2-1.54h0a9.07,9.07,0,0,0-3.12-.47h0a11.63,11.63,0,0,0-1.54.11h0l-1.54.21h0c-.48.1-.91.19-1.29.29h0a7,7,0,0,0-.83.25h0Zm32.81-3.37h0c1.12,0,2.1,0,2.94-.07h0a11.42,11.42,0,0,0,2.15-.29h0v-7.78h0a6.53,6.53,0,0,0-1.65-.43h0a17.44,17.44,0,0,0-2.73-.18h0a14.83,14.83,0,0,0-2.22.18h0a7.39,7.39,0,0,0-2.19.61h0a4.51,4.51,0,0,0-1.61,1.29h0a3.58,3.58,0,0,0-.64,2.19h0a3.78,3.78,0,0,0,1.61,3.51h0A8.23,8.23,0,0,0,234.64,138.6Zm-.4-23.37h0a13.76,13.76,0,0,1,4.74.71h0a7.53,7.53,0,0,1,3.11,2h0a7.71,7.71,0,0,1,1.69,3.19h0a15.34,15.34,0,0,1,.5,4h0v16.32h0l-1.68.28h0c-.72.12-1.53.23-2.44.33h0c-.89.09-1.87.19-2.94.28h0c-1.05.07-2.09.11-3.12.11h0a17.54,17.54,0,0,1-4-.43h0a9.54,9.54,0,0,1-3.23-1.43h0a6.7,6.7,0,0,1-2.11-2.59h0a8.93,8.93,0,0,1-.76-3.87h0a7.44,7.44,0,0,1,.9-3.73h0a7,7,0,0,1,2.37-2.51h0a11.55,11.55,0,0,1,3.51-1.39h0a18.16,18.16,0,0,1,4.23-.47h0c.45,0,.93,0,1.43.07h0l1.44.22h0l1.18.21h0a6.64,6.64,0,0,1,.72.18h0v-1.33h0a11.15,11.15,0,0,0-.25-2.29h0a5.15,5.15,0,0,0-.9-2h0a4.84,4.84,0,0,0-1.79-1.44h0a7.51,7.51,0,0,0-2.94-.5h0a23.1,23.1,0,0,0-4,.32h0a13.75,13.75,0,0,0-2.58.69h0l-.54-3.88h0a15.7,15.7,0,0,1,3-.79h0A28.3,28.3,0,0,1,234.24,115.23Zm27.68,17.49h0a9.77,9.77,0,0,1,.58-3.48h0a9.84,9.84,0,0,1,1.64-2.76h0a13.09,13.09,0,0,1,2.37-2.15h0a22.93,22.93,0,0,1,2.83-1.65h0c-2.48-2.46-3.73-5-3.73-7.67h0a9.13,9.13,0,0,1,.69-3.62h0a7.45,7.45,0,0,1,1.86-2.69h0A8.39,8.39,0,0,1,271,107h0a10.16,10.16,0,0,1,3.58-.61h0a10.07,10.07,0,0,1,3.62.61h0a8.26,8.26,0,0,1,2.66,1.61h0a6.43,6.43,0,0,1,1.61,2.41h0a7.78,7.78,0,0,1,.57,3h0a7.81,7.81,0,0,1-.61,3.16h0a9.28,9.28,0,0,1-1.54,2.54h0a14,14,0,0,1-2.22,2.12h0a20,20,0,0,1-2.65,1.72h0l8.1,8.28h0a20,20,0,0,0,2.22-7h0l3.87.5h0a20.78,20.78,0,0,1-1,4.49h0a22.79,22.79,0,0,1-2.33,4.84h0c1.17,1.26,2.25,2.52,3.23,3.76h0a23,23,0,0,1,2.44,3.62h-4.91a21.23,21.23,0,0,0-1.47-2.08h0l-1.83-2.08h0a17.59,17.59,0,0,1-4.77,3.34h0a14.89,14.89,0,0,1-6.24,1.25h0a13.68,13.68,0,0,1-5.41-.93h0a10.11,10.11,0,0,1-3.52-2.33h0a8.37,8.37,0,0,1-1.86-3.15h0A10.76,10.76,0,0,1,261.92,132.72Zm4.66-.11h0a6.07,6.07,0,0,0,.36,2h0a5.09,5.09,0,0,0,1.15,1.93h0a6.35,6.35,0,0,0,2.08,1.47h0a7.71,7.71,0,0,0,3.19.58h0a11,11,0,0,0,4.55-.94h0a10.91,10.91,0,0,0,3.66-2.54h0l-9.79-9.9h0a19.82,19.82,0,0,0-1.83,1.08h0a6.84,6.84,0,0,0-1.68,1.47h0a6.84,6.84,0,0,0-1.22,2.08h0A7.77,7.77,0,0,0,266.58,132.61Zm12.19-18.5h0a4,4,0,0,0-1.14-2.9h0a4,4,0,0,0-3.09-1.18h0a4.21,4.21,0,0,0-3.37,1.36h0a4.7,4.7,0,0,0-1.18,3.26h0c0,2.18,1.13,4.3,3.4,6.38h0a13.64,13.64,0,0,0,2.08-1.21h0a7.4,7.4,0,0,0,1.72-1.51h0a6.59,6.59,0,0,0,1.15-1.86h0A6,6,0,0,0,278.77,114.11Zm26.64-6.92h26.78v4.2h-11V142h-4.84V111.39h-11Zm54.64,21.73h0a16.1,16.1,0,0,1-.93,5.63h0a12.7,12.7,0,0,1-2.51,4.3h0a11.64,11.64,0,0,1-3.91,2.8h0a12.23,12.23,0,0,1-4.91,1h0a12.23,12.23,0,0,1-4.91-1h0a11.64,11.64,0,0,1-3.91-2.8h0a12.7,12.7,0,0,1-2.51-4.3h0a16.1,16.1,0,0,1-.93-5.63h0a16,16,0,0,1,.93-5.59h0A12.7,12.7,0,0,1,339,119h0a11.11,11.11,0,0,1,3.91-2.8h0a12.39,12.39,0,0,1,4.91-1h0a12.39,12.39,0,0,1,4.91,1h0a11.11,11.11,0,0,1,3.91,2.8h0a12.7,12.7,0,0,1,2.51,4.34h0A16,16,0,0,1,360.05,128.92Zm-4.87,0h0a11.21,11.21,0,0,0-2-7h0a6.47,6.47,0,0,0-5.41-2.62h0a6.47,6.47,0,0,0-5.41,2.62h0a11.21,11.21,0,0,0-2,7h0a11.21,11.21,0,0,0,2,7h0a6.48,6.48,0,0,0,5.41,2.58h0a6.48,6.48,0,0,0,5.41-2.58h0A11.21,11.21,0,0,0,355.18,128.92Zm21.08-13.62h0c.4,0,.86,0,1.36.07h0l1.54.21h0l1.36.26h0l.94.21h0l-.79,4.09h0a10.93,10.93,0,0,0-1.83-.47h0a15.77,15.77,0,0,0-3.3-.28h0a11.92,11.92,0,0,0-2.58.28h0c-.86.17-1.42.29-1.69.36h0V142h-4.66V117h0a31.23,31.23,0,0,1,4.13-1.14h0A25.56,25.56,0,0,1,376.26,115.3ZM409,128.92h0a16.58,16.58,0,0,1-.9,5.63h0a12.44,12.44,0,0,1-2.54,4.3h0a11.33,11.33,0,0,1-3.88,2.8h0a12.3,12.3,0,0,1-4.94,1h0a12.31,12.31,0,0,1-4.92-1h0a11.38,11.38,0,0,1-3.87-2.8h0a12.29,12.29,0,0,1-2.54-4.3h0a16.58,16.58,0,0,1-.9-5.63h0a16.47,16.47,0,0,1,.9-5.59h0A12.29,12.29,0,0,1,388,119h0a10.88,10.88,0,0,1,3.87-2.8h0a12.48,12.48,0,0,1,4.92-1h0a12.47,12.47,0,0,1,4.94,1h0a10.82,10.82,0,0,1,3.88,2.8h0a12.44,12.44,0,0,1,2.54,4.34h0A16.47,16.47,0,0,1,409,128.92Zm-4.88,0h0a11.27,11.27,0,0,0-2-7h0a6.42,6.42,0,0,0-5.41-2.62h0a6.39,6.39,0,0,0-5.38,2.62h0a11.2,11.2,0,0,0-2,7h0a11.2,11.2,0,0,0,2,7h0a6.4,6.4,0,0,0,5.38,2.58h0a6.43,6.43,0,0,0,5.41-2.58h0A11.27,11.27,0,0,0,404.15,128.92Z"/></g><g id="a23275a9-c13b-4e6a-9b3e-eaddcfed6c3a" data-name="fd1183fa-45bb-4cf4-be7c-da8172afef1a"><path class="a0e8fb98-46e4-48b4-8935-648a310d5f9c" d="M247,90a45,45,0,1,0-45-45A45,45,0,0,0,247,90Zm-3.33-71.94h5.63v25h25v5.63H243.67Zm-16.76,1.23h5.63V59.46h40.17v5.62h-45.8Z"/></g></svg>