<svg data-v-423bf9ae="" xmlns="http://www.w3.org/2000/svg" viewBox="0 0 407.6899659836832 163" class="iconAbove"><!----><!----><!----><g data-v-423bf9ae="" id="b09d4d7e-508f-4da9-87d4-a33d962c041e" fill="#000000" transform="matrix(4.559270569581267,0,0,4.559270569581267,-3.3282679705431235,84.80851062230873)"><path d="M4.94 14.52C6.69 14.52 7.85 13.66 8.55 12.21L7.06 11.33C6.73 12.21 6.05 12.88 4.94 12.88C3.57 12.88 2.69 11.93 2.69 10.25L2.69 8.71C2.69 7.04 3.57 6.05 4.94 6.05C6.03 6.05 6.65 6.64 6.93 7.50L8.51 6.66C7.83 5.15 6.69 4.41 4.94 4.41C2.37 4.41 0.73 6.24 0.73 9.53C0.73 12.82 2.37 14.52 4.94 14.52ZM12.92 14.52C15.02 14.52 16.32 13.03 16.32 10.68C16.32 8.34 15.02 6.87 12.92 6.87C10.84 6.87 9.53 8.34 9.53 10.68C9.53 13.03 10.84 14.52 12.92 14.52ZM12.92 13.08C12.00 13.08 11.41 12.47 11.41 11.37L11.41 10.01C11.41 8.92 12.00 8.32 12.92 8.32C13.86 8.32 14.45 8.92 14.45 10.01L14.45 11.37C14.45 12.47 13.86 13.08 12.92 13.08ZM19.70 14.35L19.70 9.52C19.70 8.74 20.41 8.34 21.15 8.34C22.01 8.34 22.36 8.88 22.36 9.91L22.36 14.35L24.15 14.35L24.15 9.73C24.15 7.91 23.31 6.87 21.81 6.87C20.68 6.87 20.06 7.48 19.77 8.26L19.70 8.26L19.70 7.04L17.91 7.04L17.91 14.35ZM29.02 14.52C30.44 14.52 31.46 13.87 31.93 12.59L30.56 11.93C30.30 12.59 29.88 13.08 29.02 13.08C28.03 13.08 27.52 12.39 27.52 11.37L27.52 10.04C27.52 9.02 28.03 8.32 29.02 8.32C29.79 8.32 30.25 8.76 30.42 9.38L31.89 8.72C31.46 7.57 30.49 6.87 29.02 6.87C26.87 6.87 25.65 8.34 25.65 10.68C25.65 13.03 26.87 14.52 29.02 14.52ZM33.32 14.35L35.11 14.35L35.11 9.52C35.11 8.74 35.83 8.34 36.57 8.34C37.42 8.34 37.77 8.88 37.77 9.91L37.77 14.35L39.56 14.35L39.56 9.73C39.56 7.91 38.72 6.87 37.23 6.87C36.09 6.87 35.48 7.48 35.18 8.26L35.11 8.26L35.11 3.99L33.32 3.99ZM43.36 14.52C44.45 14.52 45.25 14.03 45.49 13.09L45.57 13.09C45.68 13.85 46.16 14.35 46.93 14.35L47.92 14.35L47.92 12.92L47.19 12.92L47.19 9.48C47.19 7.81 46.14 6.87 44.17 6.87C42.70 6.87 41.85 7.43 41.31 8.27L42.38 9.23C42.73 8.72 43.20 8.30 44.04 8.30C45.00 8.30 45.40 8.78 45.40 9.59L45.40 10.12L44.16 10.12C42.17 10.12 41.03 10.86 41.03 12.36C41.03 13.66 41.87 14.52 43.36 14.52ZM43.96 13.22C43.26 13.22 42.85 12.92 42.85 12.33L42.85 12.10C42.85 11.52 43.32 11.20 44.25 11.20L45.40 11.20L45.40 12.17C45.40 12.85 44.76 13.22 43.96 13.22ZM55.89 10.91L55.38 12.75L55.30 12.75L54.82 10.91L53.55 7.04L51.77 7.04L54.39 14.70L54.05 15.72L52.74 15.72L52.74 17.15L53.82 17.15C55.02 17.15 55.54 16.70 55.90 15.65L58.84 7.04L57.16 7.04ZM70.04 6.22L70.04 4.58L62.65 4.58L62.65 6.22L65.42 6.22L65.42 14.35L67.27 14.35L67.27 6.22ZM73.43 14.52C75.53 14.52 76.83 13.03 76.83 10.68C76.83 8.34 75.53 6.87 73.43 6.87C71.34 6.87 70.04 8.34 70.04 10.68C70.04 13.03 71.34 14.52 73.43 14.52ZM73.43 13.08C72.51 13.08 71.92 12.47 71.92 11.37L71.92 10.01C71.92 8.92 72.51 8.32 73.43 8.32C74.37 8.32 74.96 8.92 74.96 10.01L74.96 11.37C74.96 12.47 74.37 13.08 73.43 13.08ZM80.21 14.35L80.21 9.87C80.21 9.07 80.84 8.74 82.04 8.74L82.60 8.74L82.60 7.04L82.21 7.04C81.05 7.04 80.46 7.78 80.28 8.55L80.21 8.55L80.21 7.04L78.41 7.04L78.41 14.35ZM86.74 14.52C88.84 14.52 90.15 13.03 90.15 10.68C90.15 8.34 88.84 6.87 86.74 6.87C84.66 6.87 83.36 8.34 83.36 10.68C83.36 13.03 84.66 14.52 86.74 14.52ZM86.74 13.08C85.82 13.08 85.23 12.47 85.23 11.37L85.23 10.01C85.23 8.92 85.82 8.32 86.74 8.32C87.68 8.32 88.27 8.92 88.27 10.01L88.27 11.37C88.27 12.47 87.68 13.08 86.74 13.08Z"></path></g><defs data-v-423bf9ae=""><linearGradient data-v-423bf9ae="" gradientTransform="rotate(25)" id="10f16805-9149-4cf4-af19-5171c1821763" x1="0%" y1="0%" x2="100%" y2="0%"><stop data-v-423bf9ae="" offset="0%" style="stop-color: rgb(81, 164, 251); stop-opacity: 1;"></stop><stop data-v-423bf9ae="" offset="100%" style="stop-color: rgb(81, 164, 251); stop-opacity: 1;"></stop></linearGradient></defs><g data-v-423bf9ae="" id="1e306f20-c755-48d0-bec5-f8c6c4b2cb00" transform="matrix(2.8125,0,0,2.8125,159,0)" stroke="none" fill="url(#10f16805-9149-4cf4-af19-5171c1821763)"><path d="M9.382 8.675h13.943v13.943L32 31.293V0H.707zM22.618 23.325H8.675V9.382L0 .707V32h31.293z"></path></g><!----></svg>